<svg width="235" height="235" viewBox="0 0 235 235" fill="none" xmlns="http://www.w3.org/2000/svg">
<path d="M195.833 127.292C195.833 176.25 161.562 200.729 120.829 214.927C118.696 215.65 116.379 215.615 114.269 214.829C73.4375 200.729 39.1666 176.25 39.1666 127.292V58.7501C39.1666 56.1531 40.1982 53.6626 42.0345 51.8263C43.8708 49.99 46.3614 48.9584 48.9583 48.9584C68.5416 48.9584 93.0208 37.2084 110.058 22.325C112.133 20.5527 114.772 19.579 117.5 19.579C120.228 19.579 122.867 20.5527 124.942 22.325C142.077 37.3063 166.458 48.9584 186.042 48.9584C188.639 48.9584 191.129 49.99 192.965 51.8263C194.802 53.6626 195.833 56.1531 195.833 58.7501V127.292Z" fill="url(#paint0_linear_270_6)" stroke="black" stroke-width="2" stroke-linecap="round" stroke-linejoin="round"/>
<defs>
<linearGradient id="paint0_linear_270_6" x1="117.5" y1="19.579" x2="117.5" y2="215.445" gradientUnits="userSpaceOnUse">
<stop stop-color="#7476FF"/>
<stop offset="1" stop-color="#56E47C"/>
</linearGradient>
</defs>
</svg>
